<svg width="49" height="36" viewBox="0 0 49 36" fill="none" xmlns="http://www.w3.org/2000/svg">
<g id="icon-0" clip-path="url(#clip0_8_102)">
<g id="Group">
<path id="Vector" d="M48.3196 17.7126L48.3219 17.7102L44.5457 13.934L44.5434 13.9363L30.4852 -0.121216L26.709 3.65501L40.7666 17.7126L26.7084 31.7713L30.4847 35.5475L44.5434 21.4894L44.5463 21.4923L48.3225 17.716L48.3196 17.7126Z" fill="white"/>
<path id="Vector_2" d="M23.7256 6.63794L21.8374 8.52663L30.9638 17.6524L21.8143 26.8019L23.7024 28.69L34.74 17.6524L23.7256 6.63794Z" fill="white"/>
<path id="Vector_3" d="M23.0283 21.4923L26.8045 17.716L26.8016 17.7126L26.8039 17.7102L23.0277 13.934L23.0254 13.9363L8.96726 -0.121216L5.19104 3.65501L19.2486 17.7126L5.19046 31.7713L8.96668 35.5475L23.0254 21.4894L23.0283 21.4923Z" fill="white"/>
<path id="Vector_4" d="M2.20755 6.63794L0.319441 8.52663L9.4458 17.6524L0.296295 26.8019L2.18441 28.69L13.222 17.6524L2.20755 6.63794Z" fill="white"/>
</g>
</g>
<defs>
<clipPath id="clip0_8_102">
<rect width="48.0262" height="35.6687" fill="white" transform="translate(0.296295 -0.121216)"/>
</clipPath>
</defs>
</svg>
